<svg id="Layer_2" data-name="Layer 2" xmlns="http://www.w3.org/2000/svg" viewBox="0 0 400 120"><defs><style>.cls-1{fill:#f0ebe6;}</style></defs><path class="cls-1" d="M361.93,34.8c.49,0,1.09,0,1.37.45L391,83a1,1,0,0,1-.37,1.37H372.85c-.59,0-1.09.11-1.37-.37l-21-36.17L337.19,70.79H357a2.09,2.09,0,0,1,1.58,1l6.71,11.62c.31.55.13,1-.43,1h-54.4A1,1,0,0,1,310,83l27.65-47.78c.28-.48,1-.45,1.37-.45"/><path class="cls-1" d="M116.64,84.41c-16.92,0-29.37-10.59-29.37-24.56s12.45-23.62,29.37-23.62h33.73a.8.8,0,0,1,.64,1.29L141.44,50a.81.81,0,0,1-.64.32H116.64c-7.2,0-12.74,4.39-12.74,10.29,0,6.12,5.26,10,12.74,10h16.7a.8.8,0,0,0,.8-.8V66.49a.8.8,0,0,0-.8-.8H111.65a.81.81,0,0,1-.61-1.32L119.72,54a.79.79,0,0,1,.61-.29H149.9a.8.8,0,0,1,.8.8V83.61a.8.8,0,0,1-.8.8Z"/><path class="cls-1" d="M193.54,85.2c-23.91,0-35.93-7.71-35.93-24.92s12-24.84,35.93-24.84,36,7.64,36,24.84S217.45,85.2,193.54,85.2Zm0-35.72c-14.4,0-19.3,1.23-19.3,10.8s4.9,10.88,19.3,10.88,19.37-1.37,19.37-10.88S208,49.48,193.54,49.48Z"/><path class="cls-1" d="M284.24,84.09l-8.67-11.32a.79.79,0,0,0-.63-.32H254.39a.8.8,0,0,0-.8.8V83.61a.8.8,0,0,1-.8.8h-15a.8.8,0,0,1-.8-.8V60a.8.8,0,0,1,.8-.8h42.77c4,0,6.12-1.36,6.12-4.53s-2.16-4.39-6.12-4.39H238.66A.8.8,0,0,1,238,49l9.64-12.45a.81.81,0,0,1,.63-.31h30.14c10.87,0,25.49,3.25,25.49,17.5,0,6.72-3.69,12.68-10.26,14.91a.8.8,0,0,0-.28,1.36,101.21,101.21,0,0,1,9.89,10.45l2.3,2.63a.8.8,0,0,1-.6,1.33h-20.1A.79.79,0,0,1,284.24,84.09Z"/><path class="cls-1" d="M38.07,34.8c-.49,0-1.09,0-1.37.45L9.05,83a1,1,0,0,0,.37,1.37H27.15c.59,0,1.09.11,1.37-.37l21-36.17L62.81,70.79H43.05a2.09,2.09,0,0,0-1.58,1L34.76,83.41c-.31.55-.13,1,.43,1h54.4A1,1,0,0,0,90,83L62.31,35.25c-.28-.48-1-.45-1.37-.45"/></svg>