<svg xmlns="http://www.w3.org/2000/svg" viewBox="0 0 64 64"><defs><style>.cls-1,.cls-2{fill:none;stroke:#608e71;stroke-miterlimit:10;}.cls-1{stroke-width:2px;}.cls-3{fill:#383838;}</style></defs><g id="Cube_Other" data-name="Cube Other"><polygon class="cls-1" points="52.72 20.04 32 8.07 11.28 20.04 11.28 43.96 32 55.93 52.72 43.96 52.72 20.04"/><line class="cls-2" x1="11.28" y1="43.96" x2="17.69" y2="40.29"/><line class="cls-2" x1="46.34" y1="40.29" x2="52.75" y2="43.96"/><line class="cls-2" x1="40.89" y1="26.81" x2="52.99" y2="19.89"/><circle class="cls-2" cx="45.13" cy="39.59" r="1.25"/><circle class="cls-2" cx="40.22" cy="27.41" r="1.25"/><circle class="cls-2" cx="18.91" cy="39.59" r="1.25"/><line class="cls-2" x1="22.75" y1="26.81" x2="10.65" y2="19.89"/><circle class="cls-2" cx="23.43" cy="27.41" r="1.25"/></g><g id="Rotate"><path class="cls-3" d="M24.55,53.1H42.24a1,1,0,0,0,.87-1.5l-2.85-4.93a1,1,0,0,0-.86-.5H21.91v0l-2-3.44,10.74-18.6a1,1,0,0,0,0-1l-2.84-4.92a1,1,0,0,0-1.74,0L15.28,36.94a1,1,0,0,0,0,1L18,42.69H18l2.88,5h0l2.84,4.92A1,1,0,0,0,24.55,53.1Z"/><path class="cls-3" d="M17.41,15.29,8.57,30.61a1,1,0,0,0,.87,1.5h5.68a1,1,0,0,0,.87-.5l8.74-15.14,0,0h4L39.45,35.1a1,1,0,0,0,.87.5H46a1,1,0,0,0,.87-1.5L36,15.34a1,1,0,0,0-.87-.5H29.7l0-.05H18.28A1,1,0,0,0,17.41,15.29Z"/><path class="cls-3" d="M53.72,28,44.88,12.7a1,1,0,0,0-1.74,0L40.3,17.62a1,1,0,0,0,0,1l8.75,15.15h0L47,37.2H25.55a1,1,0,0,0-.87.5l-2.84,4.92a1,1,0,0,0,.87,1.5H44.37a1,1,0,0,0,.87-.5L48,38.88l0,0,2.88-5h0L53.72,29A1,1,0,0,0,53.72,28Z"/></g><g id="Cube"><circle class="cls-2" cx="31.9" cy="32.14" r="2.5"/><line class="cls-2" x1="32" y1="34.64" x2="32" y2="55.93"/></g></svg>